<svg width="80" height="100" viewBox="0 0 80 100" fill="none" xmlns="http://www.w3.org/2000/svg" >
<path d="M40.2359 99.5985C28.8 96.719 19.3593 90.1578 11.9137 79.9149C4.46809 69.672 0.745285 58.2979 0.745285 45.7926V15.681L40.2359 0.87207L79.7264 15.681V45.7926C79.7264 58.2979 76.0036 69.672 68.558 79.9149C61.1124 90.1578 51.6717 96.719 40.2359 99.5985ZM40.2359 89.2322C48.7921 86.5172 55.8675 81.0873 61.462 72.9424C67.0565 64.7974 69.8538 55.7475 69.8538 45.7926V22.4685L40.2359 11.3618L10.6179 22.4685V45.7926C10.6179 55.7475 13.4152 64.7974 19.0097 72.9424C24.6042 81.0873 31.6796 86.5172 40.2359 89.2322ZM30.3632 69.9806H50.1085C51.5071 69.9806 52.6795 69.5075 53.6256 68.5614C54.5718 67.6152 55.0448 66.4429 55.0448 65.0442V50.2353C55.0448 48.8367 54.5718 47.6643 53.6256 46.7182C52.6795 45.772 51.5071 45.299 50.1085 45.299V40.3626C50.1085 37.6477 49.1418 35.3235 47.2084 33.3901C45.275 31.4567 42.9508 30.49 40.2359 30.49C37.5209 30.49 35.1967 31.4567 33.2633 33.3901C31.3299 35.3235 30.3632 37.6477 30.3632 40.3626V45.299C28.9646 45.299 27.7922 45.772 26.8461 46.7182C25.9 47.6643 25.4269 48.8367 25.4269 50.2353V65.0442C25.4269 66.4429 25.9 67.6152 26.8461 68.5614C27.7922 69.5075 28.9646 69.9806 30.3632 69.9806ZM35.2995 45.299V40.3626C35.2995 38.964 35.7726 37.7916 36.7187 36.8455C37.6649 35.8994 38.8372 35.4263 40.2359 35.4263C41.6345 35.4263 42.8069 35.8994 43.753 36.8455C44.6991 37.7916 45.1722 38.964 45.1722 40.3626V45.299H35.2995Z" fill="#23BAC1"/>
</svg>
